<svg xmlns="http://www.w3.org/2000/svg" viewBox="0 0 450.72 202.82"><defs><style>.cls-1{fill:#fff;}</style></defs><title>logoICMC</title><g id="Camada_2" data-name="Camada 2"><g id="Layer_1" data-name="Layer 1"><g id="Logo_ICMC" data-name="Logo ICMC"><path class="cls-1" d="M39.13,98.93,30.2,120.17h3.31l2.42-6H46.48l2.41,6h3.48L43.45,98.93ZM36.94,111.8l4.26-10.4,4.27,10.4Z"/><path class="cls-1" d="M81.23,101.35a10.26,10.26,0,0,0-3.54-2.14,15.4,15.4,0,0,0-9.37,0,9.26,9.26,0,0,0-5.9,5.68,13.63,13.63,0,0,0-.78,4.66,13.42,13.42,0,0,0,.78,4.66,9.45,9.45,0,0,0,5.84,5.62,14.23,14.23,0,0,0,4.71.73,15.69,15.69,0,0,0,4.72-.67,10.41,10.41,0,0,0,3.54-2.2,9,9,0,0,0,2.3-3.48,13.42,13.42,0,0,0,.78-4.66,12.64,12.64,0,0,0-.78-4.72A9.21,9.21,0,0,0,81.23,101.35ZM78.81,116A7.91,7.91,0,0,1,73,118.14,7.71,7.71,0,0,1,67.19,116a8.84,8.84,0,0,1-2.18-6.4,9.08,9.08,0,0,1,2.13-6.41A7.76,7.76,0,0,1,73,100.9a7.76,7.76,0,0,1,5.84,2.24,10.66,10.66,0,0,1,0,12.81Z"/><path class="cls-1" d="M343.21,15.11l5.67,6.12,13.42,14.5,2.24-2-18.3-19.71s.11-3.54.34-4.72a7.41,7.41,0,0,1,2.58-4.11,9.69,9.69,0,0,1,5.61-1.79c2.81-.06,20.77-.06,20.77-.06s3.15.34,4.44,1.41a7.93,7.93,0,0,1,2.81,3.31,17,17,0,0,1,.78,3.14h3.15a16.15,16.15,0,0,1,1.46-4.37,8.61,8.61,0,0,1,5.05-3.21c2.19-.33,11.68-.28,11.68-.28h9.15s3.87.23,5.33,1.74,2.47,2.47,2.92,4.5a39.32,39.32,0,0,1,.28,6.12l.28,12.58H406.42L406.19,11h-3.08V43.82H386.72v2.92h20.09l-.39-15.28,19.2-.17V13.37a8.93,8.93,0,0,0-.79-6.07c-1.62-2.86-2.13-4-4.83-5.33A12.15,12.15,0,0,0,413.21.45H394.8a14.7,14.7,0,0,0-4.21.62,10.41,10.41,0,0,0-3.76,2.3,11.11,11.11,0,0,0-1.63,2.36S384,4.21,383.12,3.37a13,13,0,0,0-3.2-2.25,14.89,14.89,0,0,0-5.05-.78h-20A14.28,14.28,0,0,0,348,2.08a8.94,8.94,0,0,0-4.43,7,14.4,14.4,0,0,0-.34,3Z"/><path class="cls-1" d="M262.71,91.57a49.72,49.72,0,0,0,19.6-3.65c.78-.28,2.35-.67,3.14-1a24.73,24.73,0,0,1-.39-7.47c.22-4.5,2.13-12,4.77-16a49,49,0,0,1-13.65,9.44,31.82,31.82,0,0,1-13.24,2.7,31.14,31.14,0,0,1-15.38-3.82,27.53,27.53,0,0,1-10.73-10.62,31.07,31.07,0,0,1-3.76-15.45,29.15,29.15,0,0,1,29.59-29.61q14.82,0,26.66,12.53l11.62-11.12a50.84,50.84,0,0,0-17.23-13A49.34,49.34,0,0,0,262.94,0,47.62,47.62,0,0,0,239.3,6.18a43.73,43.73,0,0,0-16.89,16.29,45.27,45.27,0,0,0-5.89,23.2q0,20.14,13,33C238.13,87.3,249.18,91.57,262.71,91.57Z"/><path class="cls-1" d="M310.15,45.11a11.75,11.75,0,0,0,6.79,1.52h18.41a14.7,14.7,0,0,0,4.21-.62,9.1,9.1,0,0,0,3.76-2.3A10.14,10.14,0,0,0,345,41.4,28.85,28.85,0,0,0,347,43.71a12.92,12.92,0,0,0,3.2,2.24,14.65,14.65,0,0,0,5,.79h20a13.6,13.6,0,0,0,6.9-1.74,8.86,8.86,0,0,0,4.43-6.91,14.65,14.65,0,0,0,.34-3V32l-5.67-6.13L367.85,11.41l-2.24,1.9,18.3,19.78s-.11,3.54-.34,4.72a7.25,7.25,0,0,1-2.58,4,9.28,9.28,0,0,1-5.56,1.86c-2.86,0-20.82,0-20.82,0s-3.15-.33-4.44-1.4a8,8,0,0,1-2.8-3.37,15.46,15.46,0,0,1-.79-3.09h-3.14A16.37,16.37,0,0,1,342,40.22a8.37,8.37,0,0,1-5.06,3.26c-2.19.28-11.67.28-11.67.28H316.1s-3.88-.28-5.34-1.74-2.47-2.53-2.91-4.49a38.21,38.21,0,0,1-.28-6.13V3.26H324V34.1H327V3.26h16.4V.39H304.53V33.76a8.93,8.93,0,0,0,.79,6.07C307,42.64,307.45,43.82,310.15,45.11Z"/><rect class="cls-1" y="2.19" width="16.45" height="87.19"/><path class="cls-1" d="M15.43,108.65a31.69,31.69,0,0,0-3.31-.56c-1.28-.23-2.3-.4-3-.51A5.41,5.41,0,0,1,6.4,106.4a2.6,2.6,0,0,1-.79-2.08,2.76,2.76,0,0,1,1.58-2.41,8,8,0,0,1,4.15-.9,14.57,14.57,0,0,1,4.66.67,12.49,12.49,0,0,1,3.7,1.69h.23v-3.32A22.21,22.21,0,0,0,16.11,99a24.94,24.94,0,0,0-4.71-.45,12,12,0,0,0-6.63,1.68,5.29,5.29,0,0,0-2.58,4.39,4.94,4.94,0,0,0,1.57,3.76,9.69,9.69,0,0,0,4.83,2.08c1.07.17,2.07.33,3,.45s1.85.28,2.69.45a6.44,6.44,0,0,1,2.42,1.06,2.65,2.65,0,0,1,.78,2.08,3,3,0,0,1-1.68,2.64,9.81,9.81,0,0,1-4.72,1,15.47,15.47,0,0,1-4.54-.73,14.51,14.51,0,0,1-4.27-2.08H2.08v3.54a26.39,26.39,0,0,0,4.26,1.29,24.56,24.56,0,0,0,4.77.4,15.64,15.64,0,0,0,4.21-.51,10,10,0,0,0,3-1.41,6,6,0,0,0,1.86-2.07,4.78,4.78,0,0,0,.67-2.42,4.64,4.64,0,0,0-1.34-3.54A9,9,0,0,0,15.43,108.65Z"/><path class="cls-1" d="M38.45,93.82a3,3,0,0,1,1.18.28,10.26,10.26,0,0,1,1.29,1,5,5,0,0,0,1.4.79,5.3,5.3,0,0,0,1.69.28A3.88,3.88,0,0,0,46.87,95a5,5,0,0,0,1.29-3.26H46a3.18,3.18,0,0,1-.5,1.69,1.46,1.46,0,0,1-1.3.61,2.2,2.2,0,0,1-1.17-.28,6.26,6.26,0,0,1-1.35-.84,4.27,4.27,0,0,0-1.46-.79,3.8,3.8,0,0,0-1.57-.28,4,4,0,0,0-2.86,1.07,4.48,4.48,0,0,0-1.3,3.26h2.14a3.69,3.69,0,0,1,.5-1.74A1.51,1.51,0,0,1,38.45,93.82Z"/><polygon class="cls-1" points="204.73 98.93 201.47 98.93 201.47 120.17 216.91 120.17 216.91 117.64 204.73 117.64 204.73 98.93"/><path class="cls-1" d="M245,101.35a11.35,11.35,0,0,0-3.53-2.14,15.42,15.42,0,0,0-4.72-.73,15.67,15.67,0,0,0-4.72.73,11,11,0,0,0-3.59,2.14,9.66,9.66,0,0,0-2.24,3.54,12.32,12.32,0,0,0-.85,4.66,12.14,12.14,0,0,0,.85,4.66,9.21,9.21,0,0,0,2.24,3.48,10,10,0,0,0,3.59,2.14,14,14,0,0,0,4.72.73,15.1,15.1,0,0,0,4.66-.67,10.17,10.17,0,0,0,3.59-2.2,9,9,0,0,0,2.25-3.48,12.33,12.33,0,0,0,.84-4.66,14,14,0,0,0-.79-4.72A9.84,9.84,0,0,0,245,101.35ZM242.56,116a7.79,7.79,0,0,1-5.78,2.19,7.93,7.93,0,0,1-5.84-2.19,9.09,9.09,0,0,1-2.13-6.4c0-2.75.67-4.89,2.13-6.41a7.77,7.77,0,0,1,5.84-2.24,7.63,7.63,0,0,1,5.78,2.24c1.46,1.52,2.13,3.66,2.13,6.41S244,114.44,242.56,116Z"/><path class="cls-1" d="M272.48,108.65a31.66,31.66,0,0,0-3.25-.56l-3-.51a6,6,0,0,1-2.81-1.18,2.81,2.81,0,0,1,.84-4.49,8,8,0,0,1,4.16-.9,14.81,14.81,0,0,1,4.66.67,11.6,11.6,0,0,1,3.65,1.69H277v-3.32A19.87,19.87,0,0,0,273.21,99a25.1,25.1,0,0,0-4.77-.45,11.92,11.92,0,0,0-6.57,1.68,5.15,5.15,0,0,0-2.58,4.39,4.74,4.74,0,0,0,1.57,3.76,9.69,9.69,0,0,0,4.83,2.08c1.06.17,2.08.33,3,.45s1.85.28,2.64.45a6.36,6.36,0,0,1,2.47,1.06,2.65,2.65,0,0,1,.78,2.08,3,3,0,0,1-1.68,2.64,9.81,9.81,0,0,1-4.72,1,15.41,15.41,0,0,1-4.54-.73,14.51,14.51,0,0,1-4.27-2.08h-.28v3.54a27,27,0,0,0,4.32,1.29,24.37,24.37,0,0,0,4.72.4,15.77,15.77,0,0,0,4.26-.51,10.73,10.73,0,0,0,3-1.41,6,6,0,0,0,1.85-2.07,4.78,4.78,0,0,0,.67-2.42,4.46,4.46,0,0,0-1.4-3.54A8.48,8.48,0,0,0,272.48,108.65Z"/><polygon class="cls-1" points="198.89 2.19 182.95 2.19 162.51 63.03 142.36 2.19 126.14 2.19 111.09 89.38 127.26 89.38 136.8 34.32 155.1 89.38 169.7 89.38 188.22 34.32 197.6 89.38 213.59 89.38 198.89 2.19"/><path class="cls-1" d="M147.19,98.93l-8.87,21.24h3.31l2.36-6H154.6l2.41,6h3.43l-8.87-21.24ZM145,111.8l4.32-10.4,4.27,10.4Z"/><path class="cls-1" d="M185.81,108.54a5.57,5.57,0,0,0,1.34-3.82,4.91,4.91,0,0,0-.78-2.81,6.1,6.1,0,0,0-2.08-1.86,8.92,8.92,0,0,0-2.64-.89,22.64,22.64,0,0,0-3.7-.23H171.1v21.24h3.26v-8.49H179l8.14,8.49h4.21l-9.15-9.33A8.27,8.27,0,0,0,185.81,108.54Zm-8.14.84h-3.31v-8h3.82a13.72,13.72,0,0,1,2.3.16,5.75,5.75,0,0,1,1.68.57,3.59,3.59,0,0,1,1.23,1.18,3.74,3.74,0,0,1,.34,1.63,4.82,4.82,0,0,1-.34,2,3.39,3.39,0,0,1-1.12,1.41,4.22,4.22,0,0,1-1.91.84A12.63,12.63,0,0,1,177.67,109.38Z"/><path class="cls-1" d="M71,16.12q14.82,0,26.6,12.53l11.62-11.12A51.11,51.11,0,0,0,92,4.55,49.71,49.71,0,0,0,71.24,0a47.85,47.85,0,0,0-23.7,6.18A43.9,43.9,0,0,0,30.71,22.47a45.28,45.28,0,0,0-5.9,23.2c0,13.43,4.33,24.44,12.91,33S57.48,91.57,71,91.57A49.84,49.84,0,0,0,90.6,87.92c5.73-2.42,11.79-6.74,18.25-13L97.56,63.15q-7.16,7.07-13.13,9.77a31.65,31.65,0,0,1-13.19,2.7A31.2,31.2,0,0,1,55.8,71.8,27.44,27.44,0,0,1,45.13,61.18a31.1,31.1,0,0,1-3.82-15.45A29.25,29.25,0,0,1,71,16.12Z"/><path class="cls-1" d="M121.31,98.54a14.77,14.77,0,0,0-4.89.73,10.42,10.42,0,0,0-3.76,2.13,8.9,8.9,0,0,0-2.47,3.49,13.54,13.54,0,0,0,.06,9.55,8.89,8.89,0,0,0,2.47,3.42,10.57,10.57,0,0,0,3.76,2,16.54,16.54,0,0,0,4.83.62,17,17,0,0,0,2.58-.18c.79-.11,1.52-.28,2.19-.44s1.4-.45,1.91-.62a15.83,15.83,0,0,1,1.63-.68v-3.31h-.23a13.49,13.49,0,0,1-3.82,2.13,14.31,14.31,0,0,1-4.43.68,10.63,10.63,0,0,1-3.26-.51,6.63,6.63,0,0,1-2.63-1.57,7.45,7.45,0,0,1-1.8-2.58,9.11,9.11,0,0,1-.73-3.88,11.15,11.15,0,0,1,.62-3.77,7.69,7.69,0,0,1,1.79-2.69,7.26,7.26,0,0,1,2.64-1.63,10.55,10.55,0,0,1,3.37-.51,13,13,0,0,1,4.21.68,15.62,15.62,0,0,1,4,2.13h.23v-3.37a23.64,23.64,0,0,0-4.38-1.46A23.16,23.16,0,0,0,121.31,98.54Z"/><path class="cls-1" d="M447.07,136a199.62,199.62,0,0,0-23.6-33.64c9.77-9.61,13.91-19.95,11.65-29.16a21.79,21.79,0,0,0-15.23-15.44c-9-2.67-19.75,2.37-31.8,11-6.89-7.07-17.52-14.74-33.24-9.19A97.29,97.29,0,0,0,341,69.6c-12-11.25-27.56-15-38.2-9.17-8.71,4.8-12.1,14.85-9.27,27.68,2,6.17,6.78,11.9,12.36,17.73-2,2.68-4,5.26-5.95,7.76-4.56,5.79-9.28,11.78-13.19,19.24-7.87,15.47-8.26,31.32-1.07,43.5a30.79,30.79,0,0,0,25.45,15.45H312A53.77,53.77,0,0,0,329.55,189c7.92,9,20.35,13.8,33.61,13.8A57.6,57.6,0,0,0,388.35,197a49.32,49.32,0,0,0,12.93-9,62.18,62.18,0,0,0,11.39,1.12c13,0,23.53-4.69,30.42-13.72C451.5,164.35,453.15,148.18,447.07,136ZM419.23,60a19.45,19.45,0,0,1,13.61,13.75c2.05,8.35-1.84,17.86-10.93,26.84-.82-.92-1.65-1.84-2.5-2.74,10.7-8.68,12.17-21.37,7.25-28.46-4.1-5.9-13.31-9.09-26.86-.39-3.72,1.87-9.75,6.51-18.84,13.5-3.68,2.83-7.81,6-12.38,9.45l-2.76-2.34C371,85.21,376.07,81,380.9,77.13l.06,0,.16-.21C396.11,65.06,409.13,57,419.23,60Zm.49,24.15c2-3.33,1.88-7-.35-9.39-2.63-2.78-7.19-2.85-12.23-.17-11.54,6.38-23.08,15.62-32,23.1-1-.91-2.06-1.82-3.1-2.73,4.26-3.23,8.16-6.22,11.63-8.89,8.65-6.65,14.9-11.46,18.21-13.1l.23-.13C411.27,67,419.25,66.61,423,72s2.26,15.55-6.68,22.61c-1-1-2-2-3-3ZM411.61,90q-5-4.74-10.37-9.12c2.33-1.5,4.68-2.92,7-4.22,4-2.14,7.54-2.24,9.4-.28,1.49,1.58,1.51,4.16.16,6.4Zm1,53.22-.08-.22c-.46-1-.9-2-1.34-3-2-4.43-4-9-7.3-12.4a129.65,129.65,0,0,1,8-10.88,215.7,215.7,0,0,1,19.66,29.17c2.32,5.15,1.47,11.76-2.15,16.83-3.82,5.34-10.1,8.21-17.42,8C414.67,162.54,415,153.19,412.62,143.21Zm-83.55-13.12q2.79-4,5.84-7.66l.29-.2-.06-.08c3.7-4.49,7.65-8.79,11.71-13.21,2.3-2.51,4.62-5,6.92-7.65l2.83,2.53C343.87,117.27,335,128,328,138.56c-6.33,10-7.32,21.38-2.91,33.07a30.12,30.12,0,0,1-4.42,1.28c-4.44-13.91-3-27,4.12-36.25,1.31-2.22,2.71-4.33,4.15-6.39l.17-.08A.47.47,0,0,0,329.07,130.09ZM311.6,74.39c-1.5,1-3.72,3.73-1.73,10.22L310,85c2.16,3,4.45,5.92,6.8,8.72-.06.06-.11.12-.17.17l1.68,1.64h0c2.31,2.69,4.65,5.3,7,7.86,3.81,4.25,7.74,8.64,11.44,13.31-1,1.16-2,2.34-3,3.52-3.85-5.26-9-10.65-14-15.89-6.24-6.53-12.14-12.69-14.38-17.42-2.89-6.66-1.89-12.81,2.59-16,4.7-3.39,14.11-3.82,25.36,5.88-1,1-2,2-3,3C322.29,73.78,315.37,71.81,311.6,74.39Zm17,7c-2.21,2.26-4.38,4.54-6.54,6.8L318.47,92c-2.22-2.65-4.38-5.38-6.41-8.23-1.08-3.65-.77-6.28.87-7.41C315.08,74.85,320.43,75.39,328.65,81.35Zm15.28,8.93c.95-.87,1.92-1.74,2.91-2.6,11.54,8.91,21.88,19.13,31.88,29q3.64,3.61,7.29,7.18-1.2,1.83-2.36,3.7l-3.06-3.18C369.29,112.62,357.62,100.46,343.93,90.28ZM352,99.75c-2.29,2.58-4.59,5.1-6.88,7.6s-4.58,5-6.8,7.5c-2.71-3.4-5.51-6.65-8.31-9.79A122.56,122.56,0,0,1,342.18,91.9C345.56,94.4,348.83,97,352,99.75Zm42.82,15.69c2.39-3.28,4.84-6.67,7.19-10.22.72.78,1.43,1.57,2.14,2.37a94.61,94.61,0,0,1-6.35,9.64c-10.56,14.85-26.47,37.23-7.47,56.09a30.91,30.91,0,0,1-3.56,3.23c-11.44-12.4-9.87-25.59-7.21-35.61C383.41,131.13,389,123.51,394.82,115.44Zm-1.89-1.38-.46.63c-4.88-5.38-10-10.41-15.54-15.41,3.18-2.67,6.69-5.56,10.42-8.46,4.45,3.93,8.8,8.16,13,12.64C398,107.14,395.4,110.66,392.93,114.06Zm-1.87,2.57c-.84,1.16-1.66,2.31-2.48,3.47q-3.34-3.27-6.69-6.59c-9.88-9.77-20.09-19.85-31.54-28.78,1-.81,2-1.61,3-2.4C368.08,94.39,380.26,104.64,391.06,116.63Zm-35.8-35.77c1.53-1.16,3.08-2.3,4.67-3.42,5.84-3.12,9.83-1.35,14.31,2.06-3.34,2.75-6.75,5.63-10.25,8.58Q359.78,84.56,355.26,80.86Zm3.44-5.42c-12.16,8.6-22.59,18.19-30.29,27.85l-1.36-1.53-1.34-1.49c9.17-10.82,18-18.45,29.39-28C366.61,66,372.41,70.39,379,75.63L376.12,78C371.81,74.58,366.45,71.3,358.7,75.44Zm-35.84,59.91c-7.49,9.7-9.08,23.43-4.51,38-.86.12-1.75.24-2.7.32a17.82,17.82,0,0,1-13.94-9c-2.52-4.44-4.29-12.06,1.62-23.13a133.78,133.78,0,0,1,15.12-22.66,53.64,53.64,0,0,1,7.92,11C325.16,131.65,324,133.46,322.86,135.35Zm-21.61,5.1c-6.4,12-4.39,20.44-1.58,25.39a20.24,20.24,0,0,0,16,10.16c1.2-.1,2.32-.25,3.4-.43l.06.16.85-.3c10.43-1.91,15.43-7.14,17.8-11.46a21.48,21.48,0,0,0,.22-19.8l-.6.31A20.69,20.69,0,0,1,339,142.4c.69-1,1.4-2,2.11-3,4.31,9.18,4.3,19.4-.17,27.14-3.52,6.11-11.33,13.47-28.52,13.89a23.18,23.18,0,0,1-16.32-10c-3-4.38-5.87-11.86-2.84-22.67,2.7-9.29,10.31-21.4,21-33.47.9.93,1.78,1.85,2.64,2.79A136.88,136.88,0,0,0,301.25,140.45Zm35.15,5.76a19.08,19.08,0,0,1-.66,16.63c-.19.36-.42.73-.66,1.1A21.9,21.9,0,0,1,336.4,146.21Zm.7-5.23c-5.82,6.83-7.32,17.3-3.65,25.09a19.36,19.36,0,0,1-4.29,3.57c-3.72-10.18-2.82-20.06,2.62-28.62,6.84-10.3,15.55-20.87,28.11-34.14,1,.92,1.94,1.84,2.9,2.77l-3.74,4.26C351.06,123,343.5,131.61,337.1,141Zm23.72-25.52,3.65-4.17c4.95,4.86,9.72,9.83,14.43,14.73l3.51,3.66a79.52,79.52,0,0,0-5.08,10.52c-2.83,10.69-4.48,24.57,7.53,37.74-10.79,7.23-27.34,9.05-38.37-.09a35.22,35.22,0,0,0,3.93-5.48c7-12.21,6.16-27.94-2.28-42.12C352.16,125.33,356.42,120.47,360.82,115.46Zm3.85,70.92a39.17,39.17,0,0,0,23.17-7.68C400,169.44,403,155.3,396,140.81c.61-1.11,1.27-2.27,2-3.48,11.15,18.1,4.72,34.15-5.33,43.34-12.57,11.49-35,16.22-52.61,3.08a36.51,36.51,0,0,0,4.92-4.17A30.41,30.41,0,0,0,364.67,186.38ZM396.59,162c-4.17-4.21-4.56-12.74-2-18.55C397.39,149.92,398,156.26,396.59,162Zm-3.67-20.53c-3.24,6.25-3.58,17.76,2.92,23a25.31,25.31,0,0,1-2.68,5.29c-15.72-16.12-1.87-35.62,8.3-49.92,2.3-3.24,4.34-6.11,5.83-8.65,1,1.22,2.08,2.46,3.11,3.71A165.36,165.36,0,0,0,392.92,141.48Zm19.75,31.66c7.8,0,14.5-3.2,18.65-9s5-13.26,2.34-19.25a217.76,217.76,0,0,0-44.42-55.5c.91-.7,1.83-1.39,2.77-2.08a202.39,202.39,0,0,1,42.8,50.31c4.77,7.1,6.71,19.75.88,29.21-4.84,7.87-14,11.48-26.45,10.5a40,40,0,0,0,1.92-4.21C411.67,173.13,412.17,173.14,412.67,173.14ZM355.84,61.67c14-4.93,23.51,1.52,30.32,8.46q-1.73,1.29-3.51,2.65l-.58-.46c-7-5.56-14.92-11.86-29.34-3.84l-.35.24C340.91,78.29,332,86,322.69,96.88c-.9-1-1.8-2.06-2.7-3.11l3.82-4C333.64,79.45,343.79,68.78,355.84,61.67Zm-60,25.83c-2.56-11.64.41-20.75,8.15-25,9.71-5.35,24-1.77,35.28,8.66-.89.79-1.77,1.6-2.65,2.41-13.37-11.7-25.17-10.8-31.26-6.4s-7.8,12.91-4.05,21.55c2.58,5.45,8.72,11.87,15.22,18.67,5.23,5.47,10.6,11.1,14.32,16.42-1,1.28-2,2.58-2.94,3.91-3.67-6.61-9.76-12.79-15.68-18.79C305,101.6,298.13,94.69,295.8,87.5Zm15.39,101.94a28.42,28.42,0,0,1-23.48-14.3c-6.78-11.47-6.36-26.5,1.13-41.23,3.81-7.25,8.25-12.89,13-18.86,1.9-2.41,3.85-4.9,5.75-7.49l3,3,.54.55c-11.22,12.63-19.27,25.47-22.16,35.46-2.73,9.74-1.51,19.12,3.44,26.42a27.68,27.68,0,0,0,19.71,11.93h.28c15.12-.33,26.65-6.06,32.47-16.14,5.55-9.62,5.26-22.41-.73-33.42.81-1.06,1.64-2.12,2.48-3.17,7.59,13.24,8.3,27.74,1.83,39C341.58,183,328,189.65,311.19,189.44Zm76.14,5.4c-19.36,9.45-43.14,6.42-55.43-6.7,1.38-.57,2.71-1.2,4-1.88a43.93,43.93,0,0,0,27.9,9.91A48.09,48.09,0,0,0,395.63,184c11.77-10.76,19.2-29.78,4.85-51,.67-1.1,1.37-2.22,2.1-3.35,2.77,3.06,4.58,7.08,6.48,11.34.43.95.86,1.91,1.3,2.86,2.89,12.45,1.5,23.86-3.68,33.19h-.15l0,.36A43.42,43.42,0,0,1,387.33,194.84Zm53.89-20.9c-8,10.48-21.43,14.67-38,12a43,43,0,0,0,3.43-4.34A54.65,54.65,0,0,0,413,182c12.13,0,21.43-4.42,26.57-12.79,6.81-11.06,4.58-25.81-.9-34a206.94,206.94,0,0,0-42.86-50.62c1.13-.8,2.28-1.59,3.43-2.36,18.43,14.92,33.44,32.89,45.81,54.87C450.57,148.28,449,163.77,441.22,173.94Z"/></g></g></g></svg>